<svg xmlns="http://www.w3.org/2000/svg" viewBox="0 0 900 700" width="900" height="700">
  <defs>
    <linearGradient id="sky" x1="0" y1="0" x2="0" y2="1">
      <stop offset="0%" stop-color="#cbd2d6" />
      <stop offset="100%" stop-color="#5c6b74" />
    </linearGradient>
  </defs>
  <rect width="900" height="700" fill="url(#sky)" />
  <rect x="-20.0" y="210.2" width="143.5" height="202.0" fill="#5c6b74" opacity="0.76" /><rect x="-16.0" y="234.5" width="14.9" height="14.4" fill="#eaf4ff" opacity="0.25" /><rect x="-16.0" y="308.0" width="14.9" height="14.4" fill="#eaf4ff" opacity="0.29" /><rect x="-16.0" y="326.3" width="14.9" height="14.4" fill="#eaf4ff" opacity="0.50" /><rect x="-16.0" y="344.7" width="14.9" height="14.4" fill="#eaf4ff" opacity="0.36" /><rect x="-16.0" y="363.0" width="14.9" height="14.4" fill="#eaf4ff" opacity="0.35" /><rect x="1.9" y="216.2" width="14.9" height="14.4" fill="#eaf4ff" opacity="0.43" /><rect x="1.9" y="234.5" width="14.9" height="14.4" fill="#eaf4ff" opacity="0.57" /><rect x="1.9" y="271.2" width="14.9" height="14.4" fill="#eaf4ff" opacity="0.34" /><rect x="1.9" y="289.6" width="14.9" height="14.4" fill="#eaf4ff" opacity="0.59" /><rect x="1.9" y="344.7" width="14.9" height="14.4" fill="#eaf4ff" opacity="0.41" /><rect x="19.9" y="252.9" width="14.9" height="14.4" fill="#eaf4ff" opacity="0.26" /><rect x="19.9" y="271.2" width="14.9" height="14.4" fill="#eaf4ff" opacity="0.41" /><rect x="19.9" y="326.3" width="14.9" height="14.4" fill="#eaf4ff" opacity="0.50" /><rect x="37.8" y="216.2" width="14.9" height="14.4" fill="#eaf4ff" opacity="0.33" /><rect x="37.8" y="289.6" width="14.9" height="14.4" fill="#eaf4ff" opacity="0.32" /><rect x="37.8" y="308.0" width="14.9" height="14.4" fill="#eaf4ff" opacity="0.29" /><rect x="37.8" y="363.0" width="14.9" height="14.4" fill="#eaf4ff" opacity="0.40" /><rect x="55.7" y="216.2" width="14.9" height="14.4" fill="#eaf4ff" opacity="0.29" /><rect x="55.7" y="234.5" width="14.9" height="14.4" fill="#eaf4ff" opacity="0.33" /><rect x="55.7" y="289.6" width="14.9" height="14.4" fill="#eaf4ff" opacity="0.43" /><rect x="55.7" y="326.3" width="14.9" height="14.4" fill="#eaf4ff" opacity="0.32" /><rect x="55.7" y="363.0" width="14.9" height="14.4" fill="#eaf4ff" opacity="0.28" /><rect x="55.7" y="381.4" width="14.9" height="14.4" fill="#eaf4ff" opacity="0.54" /><rect x="73.7" y="271.2" width="14.9" height="14.4" fill="#eaf4ff" opacity="0.45" /><rect x="73.7" y="289.6" width="14.9" height="14.4" fill="#eaf4ff" opacity="0.26" /><rect x="73.7" y="308.0" width="14.9" height="14.4" fill="#eaf4ff" opacity="0.29" /><rect x="73.7" y="326.3" width="14.9" height="14.4" fill="#eaf4ff" opacity="0.44" /><rect x="73.7" y="363.0" width="14.9" height="14.4" fill="#eaf4ff" opacity="0.44" /><rect x="73.7" y="381.4" width="14.9" height="14.4" fill="#eaf4ff" opacity="0.26" /><rect x="73.7" y="399.8" width="14.9" height="14.4" fill="#eaf4ff" opacity="0.42" /><rect x="91.6" y="216.2" width="14.9" height="14.4" fill="#eaf4ff" opacity="0.45" /><rect x="91.6" y="344.7" width="14.9" height="14.4" fill="#eaf4ff" opacity="0.32" /><rect x="91.6" y="363.0" width="14.9" height="14.4" fill="#eaf4ff" opacity="0.49" /><rect x="91.6" y="399.8" width="14.9" height="14.4" fill="#eaf4ff" opacity="0.50" /><rect x="109.5" y="216.2" width="14.9" height="14.4" fill="#eaf4ff" opacity="0.40" /><rect x="109.5" y="234.5" width="14.9" height="14.4" fill="#eaf4ff" opacity="0.27" /><rect x="109.5" y="252.9" width="14.9" height="14.4" fill="#eaf4ff" opacity="0.54" /><rect x="109.5" y="344.7" width="14.9" height="14.4" fill="#eaf4ff" opacity="0.46" /><rect x="109.5" y="363.0" width="14.9" height="14.4" fill="#eaf4ff" opacity="0.36" /><rect x="139.9" y="59.1" width="141.9" height="353.1" fill="#5c6b74" opacity="0.69" /><rect x="143.9" y="65.1" width="14.7" height="14.6" fill="#eaf4ff" opacity="0.31" /><rect x="143.9" y="83.7" width="14.7" height="14.6" fill="#eaf4ff" opacity="0.46" /><rect x="143.9" y="102.2" width="14.7" height="14.6" fill="#eaf4ff" opacity="0.41" /><rect x="143.9" y="120.8" width="14.7" height="14.6" fill="#eaf4ff" opacity="0.50" /><rect x="143.9" y="195.1" width="14.7" height="14.6" fill="#eaf4ff" opacity="0.60" /><rect x="143.9" y="213.7" width="14.7" height="14.6" fill="#eaf4ff" opacity="0.26" /><rect x="143.9" y="232.3" width="14.7" height="14.6" fill="#eaf4ff" opacity="0.42" /><rect x="143.9" y="250.9" width="14.7" height="14.6" fill="#eaf4ff" opacity="0.37" /><rect x="143.9" y="306.6" width="14.7" height="14.6" fill="#eaf4ff" opacity="0.29" /><rect x="143.9" y="325.2" width="14.7" height="14.6" fill="#eaf4ff" opacity="0.52" /><rect x="143.9" y="343.8" width="14.7" height="14.6" fill="#eaf4ff" opacity="0.51" /><rect x="143.9" y="399.6" width="14.7" height="14.6" fill="#eaf4ff" opacity="0.55" /><rect x="161.6" y="65.1" width="14.7" height="14.6" fill="#eaf4ff" opacity="0.31" /><rect x="161.6" y="102.2" width="14.7" height="14.6" fill="#eaf4ff" opacity="0.32" /><rect x="161.6" y="120.8" width="14.7" height="14.6" fill="#eaf4ff" opacity="0.39" /><rect x="161.6" y="139.4" width="14.7" height="14.6" fill="#eaf4ff" opacity="0.44" /><rect x="161.6" y="158.0" width="14.7" height="14.6" fill="#eaf4ff" opacity="0.37" /><rect x="161.6" y="213.7" width="14.7" height="14.6" fill="#eaf4ff" opacity="0.26" /><rect x="161.6" y="250.9" width="14.7" height="14.6" fill="#eaf4ff" opacity="0.32" /><rect x="161.6" y="288.1" width="14.7" height="14.6" fill="#eaf4ff" opacity="0.49" /><rect x="161.6" y="306.6" width="14.7" height="14.6" fill="#eaf4ff" opacity="0.51" /><rect x="161.6" y="343.8" width="14.7" height="14.6" fill="#eaf4ff" opacity="0.31" /><rect x="179.4" y="65.1" width="14.7" height="14.6" fill="#eaf4ff" opacity="0.51" /><rect x="179.4" y="213.7" width="14.7" height="14.6" fill="#eaf4ff" opacity="0.44" /><rect x="179.4" y="288.1" width="14.7" height="14.6" fill="#eaf4ff" opacity="0.33" /><rect x="179.4" y="306.6" width="14.7" height="14.6" fill="#eaf4ff" opacity="0.28" /><rect x="179.4" y="381.0" width="14.7" height="14.6" fill="#eaf4ff" opacity="0.38" /><rect x="179.4" y="399.6" width="14.7" height="14.6" fill="#eaf4ff" opacity="0.33" /><rect x="197.1" y="65.1" width="14.7" height="14.6" fill="#eaf4ff" opacity="0.60" /><rect x="197.1" y="83.7" width="14.7" height="14.6" fill="#eaf4ff" opacity="0.45" /><rect x="197.1" y="139.4" width="14.7" height="14.6" fill="#eaf4ff" opacity="0.39" /><rect x="197.1" y="158.0" width="14.7" height="14.6" fill="#eaf4ff" opacity="0.37" /><rect x="197.1" y="176.6" width="14.7" height="14.6" fill="#eaf4ff" opacity="0.36" /><rect x="197.1" y="195.1" width="14.7" height="14.6" fill="#eaf4ff" opacity="0.59" /><rect x="197.1" y="213.7" width="14.7" height="14.6" fill="#eaf4ff" opacity="0.32" /><rect x="197.1" y="250.9" width="14.7" height="14.6" fill="#eaf4ff" opacity="0.25" /><rect x="197.1" y="269.5" width="14.7" height="14.6" fill="#eaf4ff" opacity="0.59" /><rect x="197.1" y="325.2" width="14.7" height="14.6" fill="#eaf4ff" opacity="0.51" /><rect x="197.1" y="381.0" width="14.7" height="14.6" fill="#eaf4ff" opacity="0.54" /><rect x="197.1" y="399.6" width="14.7" height="14.6" fill="#eaf4ff" opacity="0.58" /><rect x="214.9" y="65.1" width="14.7" height="14.6" fill="#eaf4ff" opacity="0.28" /><rect x="214.9" y="158.0" width="14.7" height="14.6" fill="#eaf4ff" opacity="0.54" /><rect x="214.9" y="176.6" width="14.7" height="14.6" fill="#eaf4ff" opacity="0.37" /><rect x="214.9" y="250.9" width="14.7" height="14.6" fill="#eaf4ff" opacity="0.42" /><rect x="214.9" y="269.5" width="14.7" height="14.6" fill="#eaf4ff" opacity="0.49" /><rect x="214.9" y="288.1" width="14.7" height="14.6" fill="#eaf4ff" opacity="0.29" /><rect x="214.9" y="306.6" width="14.7" height="14.6" fill="#eaf4ff" opacity="0.44" /><rect x="214.9" y="362.4" width="14.7" height="14.6" fill="#eaf4ff" opacity="0.26" /><rect x="214.9" y="399.6" width="14.7" height="14.6" fill="#eaf4ff" opacity="0.59" /><rect x="232.6" y="65.1" width="14.7" height="14.6" fill="#eaf4ff" opacity="0.40" /><rect x="232.6" y="83.7" width="14.7" height="14.6" fill="#eaf4ff" opacity="0.35" /><rect x="232.6" y="102.2" width="14.7" height="14.6" fill="#eaf4ff" opacity="0.46" /><rect x="232.6" y="120.8" width="14.7" height="14.6" fill="#eaf4ff" opacity="0.43" /><rect x="232.6" y="139.4" width="14.7" height="14.6" fill="#eaf4ff" opacity="0.36" /><rect x="232.6" y="176.6" width="14.7" height="14.6" fill="#eaf4ff" opacity="0.34" /><rect x="232.6" y="213.7" width="14.7" height="14.6" fill="#eaf4ff" opacity="0.36" /><rect x="232.6" y="232.3" width="14.7" height="14.6" fill="#eaf4ff" opacity="0.59" /><rect x="232.6" y="269.5" width="14.7" height="14.6" fill="#eaf4ff" opacity="0.50" /><rect x="232.6" y="288.1" width="14.7" height="14.6" fill="#eaf4ff" opacity="0.59" /><rect x="232.6" y="343.8" width="14.7" height="14.6" fill="#eaf4ff" opacity="0.51" /><rect x="232.6" y="362.4" width="14.7" height="14.6" fill="#eaf4ff" opacity="0.46" /><rect x="232.6" y="381.0" width="14.7" height="14.6" fill="#eaf4ff" opacity="0.28" /><rect x="250.4" y="65.1" width="14.7" height="14.6" fill="#eaf4ff" opacity="0.27" /><rect x="250.4" y="102.2" width="14.7" height="14.6" fill="#eaf4ff" opacity="0.31" /><rect x="250.4" y="120.8" width="14.7" height="14.6" fill="#eaf4ff" opacity="0.53" /><rect x="250.4" y="139.4" width="14.7" height="14.6" fill="#eaf4ff" opacity="0.42" /><rect x="250.4" y="176.6" width="14.7" height="14.6" fill="#eaf4ff" opacity="0.38" /><rect x="250.4" y="232.3" width="14.7" height="14.6" fill="#eaf4ff" opacity="0.36" /><rect x="250.4" y="269.5" width="14.7" height="14.6" fill="#eaf4ff" opacity="0.38" /><rect x="250.4" y="288.1" width="14.7" height="14.6" fill="#eaf4ff" opacity="0.33" /><rect x="250.4" y="325.2" width="14.7" height="14.6" fill="#eaf4ff" opacity="0.46" /><rect x="250.4" y="399.6" width="14.7" height="14.6" fill="#eaf4ff" opacity="0.27" /><rect x="268.1" y="102.2" width="14.7" height="14.6" fill="#eaf4ff" opacity="0.28" /><rect x="268.1" y="139.4" width="14.7" height="14.6" fill="#eaf4ff" opacity="0.55" /><rect x="268.1" y="158.0" width="14.7" height="14.6" fill="#eaf4ff" opacity="0.55" /><rect x="268.1" y="195.1" width="14.7" height="14.6" fill="#eaf4ff" opacity="0.43" /><rect x="268.1" y="213.7" width="14.7" height="14.6" fill="#eaf4ff" opacity="0.50" /><rect x="268.1" y="232.3" width="14.7" height="14.6" fill="#eaf4ff" opacity="0.46" /><rect x="268.1" y="269.5" width="14.7" height="14.6" fill="#eaf4ff" opacity="0.55" /><rect x="268.1" y="288.1" width="14.7" height="14.6" fill="#eaf4ff" opacity="0.56" /><rect x="268.1" y="306.6" width="14.7" height="14.6" fill="#eaf4ff" opacity="0.60" /><rect x="268.1" y="325.2" width="14.7" height="14.6" fill="#eaf4ff" opacity="0.27" /><rect x="268.1" y="343.8" width="14.7" height="14.6" fill="#eaf4ff" opacity="0.25" /><rect x="268.1" y="362.4" width="14.7" height="14.6" fill="#eaf4ff" opacity="0.40" /><rect x="294.3" y="111.0" width="158.4" height="301.1" fill="#5c6b74" opacity="0.73" /><rect x="298.3" y="135.8" width="14.6" height="14.8" fill="#eaf4ff" opacity="0.35" /><rect x="298.3" y="154.7" width="14.6" height="14.8" fill="#eaf4ff" opacity="0.40" /><rect x="298.3" y="173.5" width="14.6" height="14.8" fill="#eaf4ff" opacity="0.44" /><rect x="298.3" y="192.3" width="14.6" height="14.8" fill="#eaf4ff" opacity="0.33" /><rect x="298.3" y="211.1" width="14.6" height="14.8" fill="#eaf4ff" opacity="0.46" /><rect x="298.3" y="229.9" width="14.6" height="14.8" fill="#eaf4ff" opacity="0.54" /><rect x="298.3" y="248.8" width="14.6" height="14.8" fill="#eaf4ff" opacity="0.53" /><rect x="298.3" y="267.6" width="14.6" height="14.8" fill="#eaf4ff" opacity="0.48" /><rect x="298.3" y="286.4" width="14.6" height="14.8" fill="#eaf4ff" opacity="0.54" /><rect x="298.3" y="324.0" width="14.6" height="14.8" fill="#eaf4ff" opacity="0.28" /><rect x="298.3" y="342.9" width="14.6" height="14.8" fill="#eaf4ff" opacity="0.43" /><rect x="315.9" y="154.7" width="14.6" height="14.8" fill="#eaf4ff" opacity="0.39" /><rect x="315.9" y="192.3" width="14.6" height="14.8" fill="#eaf4ff" opacity="0.31" /><rect x="315.9" y="211.1" width="14.6" height="14.8" fill="#eaf4ff" opacity="0.53" /><rect x="315.9" y="229.9" width="14.6" height="14.8" fill="#eaf4ff" opacity="0.49" /><rect x="315.9" y="248.8" width="14.6" height="14.8" fill="#eaf4ff" opacity="0.59" /><rect x="315.9" y="324.0" width="14.6" height="14.8" fill="#eaf4ff" opacity="0.34" /><rect x="315.9" y="342.9" width="14.6" height="14.8" fill="#eaf4ff" opacity="0.28" /><rect x="315.9" y="380.5" width="14.6" height="14.8" fill="#eaf4ff" opacity="0.58" /><rect x="333.5" y="173.5" width="14.6" height="14.8" fill="#eaf4ff" opacity="0.35" /><rect x="333.5" y="211.1" width="14.6" height="14.8" fill="#eaf4ff" opacity="0.39" /><rect x="333.5" y="229.9" width="14.6" height="14.8" fill="#eaf4ff" opacity="0.29" /><rect x="333.5" y="267.6" width="14.6" height="14.8" fill="#eaf4ff" opacity="0.49" /><rect x="333.5" y="286.4" width="14.6" height="14.8" fill="#eaf4ff" opacity="0.41" /><rect x="333.5" y="305.2" width="14.6" height="14.8" fill="#eaf4ff" opacity="0.47" /><rect x="333.5" y="380.5" width="14.6" height="14.8" fill="#eaf4ff" opacity="0.31" /><rect x="351.1" y="135.8" width="14.6" height="14.8" fill="#eaf4ff" opacity="0.55" /><rect x="351.1" y="154.7" width="14.6" height="14.8" fill="#eaf4ff" opacity="0.56" /><rect x="351.1" y="173.5" width="14.6" height="14.8" fill="#eaf4ff" opacity="0.46" /><rect x="351.1" y="192.3" width="14.6" height="14.8" fill="#eaf4ff" opacity="0.37" /><rect x="351.1" y="211.1" width="14.6" height="14.8" fill="#eaf4ff" opacity="0.36" /><rect x="351.1" y="229.9" width="14.6" height="14.8" fill="#eaf4ff" opacity="0.30" /><rect x="351.1" y="248.8" width="14.6" height="14.8" fill="#eaf4ff" opacity="0.34" /><rect x="351.1" y="267.6" width="14.6" height="14.8" fill="#eaf4ff" opacity="0.56" /><rect x="351.1" y="286.4" width="14.6" height="14.8" fill="#eaf4ff" opacity="0.26" /><rect x="351.1" y="305.2" width="14.6" height="14.8" fill="#eaf4ff" opacity="0.30" /><rect x="351.1" y="324.0" width="14.6" height="14.8" fill="#eaf4ff" opacity="0.37" /><rect x="351.1" y="342.9" width="14.6" height="14.8" fill="#eaf4ff" opacity="0.56" /><rect x="351.1" y="361.7" width="14.6" height="14.8" fill="#eaf4ff" opacity="0.32" /><rect x="351.1" y="380.5" width="14.6" height="14.8" fill="#eaf4ff" opacity="0.30" /><rect x="351.1" y="399.3" width="14.6" height="14.8" fill="#eaf4ff" opacity="0.41" /><rect x="368.7" y="117.0" width="14.6" height="14.8" fill="#eaf4ff" opacity="0.48" /><rect x="368.7" y="135.8" width="14.6" height="14.8" fill="#eaf4ff" opacity="0.28" /><rect x="368.7" y="154.7" width="14.6" height="14.8" fill="#eaf4ff" opacity="0.52" /><rect x="368.7" y="192.3" width="14.6" height="14.8" fill="#eaf4ff" opacity="0.48" /><rect x="368.7" y="229.9" width="14.6" height="14.8" fill="#eaf4ff" opacity="0.50" /><rect x="368.7" y="267.6" width="14.6" height="14.8" fill="#eaf4ff" opacity="0.58" /><rect x="368.7" y="324.0" width="14.6" height="14.8" fill="#eaf4ff" opacity="0.27" /><rect x="368.7" y="361.7" width="14.6" height="14.8" fill="#eaf4ff" opacity="0.57" /><rect x="368.7" y="380.5" width="14.6" height="14.8" fill="#eaf4ff" opacity="0.54" /><rect x="368.7" y="399.3" width="14.6" height="14.8" fill="#eaf4ff" opacity="0.41" /><rect x="386.3" y="117.0" width="14.6" height="14.8" fill="#eaf4ff" opacity="0.27" /><rect x="386.3" y="154.7" width="14.6" height="14.8" fill="#eaf4ff" opacity="0.54" /><rect x="386.3" y="173.5" width="14.6" height="14.8" fill="#eaf4ff" opacity="0.44" /><rect x="386.3" y="192.3" width="14.6" height="14.8" fill="#eaf4ff" opacity="0.27" /><rect x="386.3" y="211.1" width="14.6" height="14.8" fill="#eaf4ff" opacity="0.37" /><rect x="386.3" y="248.8" width="14.6" height="14.8" fill="#eaf4ff" opacity="0.59" /><rect x="386.3" y="286.4" width="14.6" height="14.8" fill="#eaf4ff" opacity="0.45" /><rect x="386.3" y="305.2" width="14.6" height="14.8" fill="#eaf4ff" opacity="0.37" /><rect x="386.3" y="342.9" width="14.6" height="14.8" fill="#eaf4ff" opacity="0.32" /><rect x="386.3" y="399.3" width="14.6" height="14.8" fill="#eaf4ff" opacity="0.42" /><rect x="403.9" y="135.8" width="14.6" height="14.8" fill="#eaf4ff" opacity="0.27" /><rect x="403.9" y="154.7" width="14.6" height="14.8" fill="#eaf4ff" opacity="0.39" /><rect x="403.9" y="192.3" width="14.6" height="14.8" fill="#eaf4ff" opacity="0.36" /><rect x="403.9" y="248.8" width="14.6" height="14.8" fill="#eaf4ff" opacity="0.29" /><rect x="403.9" y="286.4" width="14.6" height="14.8" fill="#eaf4ff" opacity="0.38" /><rect x="403.9" y="342.9" width="14.6" height="14.8" fill="#eaf4ff" opacity="0.40" /><rect x="403.9" y="399.3" width="14.6" height="14.8" fill="#eaf4ff" opacity="0.38" /><rect x="421.5" y="154.7" width="14.6" height="14.8" fill="#eaf4ff" opacity="0.39" /><rect x="421.5" y="173.5" width="14.6" height="14.8" fill="#eaf4ff" opacity="0.30" /><rect x="421.5" y="192.3" width="14.6" height="14.8" fill="#eaf4ff" opacity="0.56" /><rect x="421.5" y="211.1" width="14.6" height="14.8" fill="#eaf4ff" opacity="0.38" /><rect x="421.5" y="267.6" width="14.6" height="14.8" fill="#eaf4ff" opacity="0.39" /><rect x="421.5" y="286.4" width="14.6" height="14.8" fill="#eaf4ff" opacity="0.52" /><rect x="421.5" y="305.2" width="14.6" height="14.8" fill="#eaf4ff" opacity="0.45" /><rect x="421.5" y="324.0" width="14.6" height="14.8" fill="#eaf4ff" opacity="0.45" /><rect x="421.5" y="342.9" width="14.6" height="14.8" fill="#eaf4ff" opacity="0.46" /><rect x="421.5" y="361.7" width="14.6" height="14.8" fill="#eaf4ff" opacity="0.40" /><rect x="421.5" y="380.5" width="14.6" height="14.8" fill="#eaf4ff" opacity="0.57" /><rect x="421.5" y="399.3" width="14.6" height="14.8" fill="#eaf4ff" opacity="0.30" /><rect x="439.1" y="154.7" width="14.6" height="14.8" fill="#eaf4ff" opacity="0.32" /><rect x="439.1" y="173.5" width="14.6" height="14.8" fill="#eaf4ff" opacity="0.50" /><rect x="439.1" y="192.3" width="14.6" height="14.8" fill="#eaf4ff" opacity="0.39" /><rect x="439.1" y="248.8" width="14.6" height="14.8" fill="#eaf4ff" opacity="0.27" /><rect x="439.1" y="267.6" width="14.6" height="14.8" fill="#eaf4ff" opacity="0.51" /><rect x="439.1" y="286.4" width="14.6" height="14.8" fill="#eaf4ff" opacity="0.57" /><rect x="439.1" y="305.2" width="14.6" height="14.8" fill="#eaf4ff" opacity="0.38" /><rect x="439.1" y="324.0" width="14.6" height="14.8" fill="#eaf4ff" opacity="0.28" /><rect x="439.1" y="342.9" width="14.6" height="14.8" fill="#eaf4ff" opacity="0.59" /><rect x="439.1" y="380.5" width="14.6" height="14.8" fill="#eaf4ff" opacity="0.31" /><rect x="471.0" y="190.4" width="99.0" height="221.8" fill="#5c6b74" opacity="0.69" /><rect x="475.0" y="196.4" width="13.5" height="14.5" fill="#eaf4ff" opacity="0.32" /><rect x="475.0" y="214.8" width="13.5" height="14.5" fill="#eaf4ff" opacity="0.60" /><rect x="475.0" y="233.3" width="13.5" height="14.5" fill="#eaf4ff" opacity="0.46" /><rect x="475.0" y="270.3" width="13.5" height="14.5" fill="#eaf4ff" opacity="0.30" /><rect x="475.0" y="288.8" width="13.5" height="14.5" fill="#eaf4ff" opacity="0.29" /><rect x="475.0" y="307.3" width="13.5" height="14.5" fill="#eaf4ff" opacity="0.59" /><rect x="491.5" y="196.4" width="13.5" height="14.5" fill="#eaf4ff" opacity="0.55" /><rect x="491.5" y="214.8" width="13.5" height="14.5" fill="#eaf4ff" opacity="0.57" /><rect x="491.5" y="288.8" width="13.5" height="14.5" fill="#eaf4ff" opacity="0.55" /><rect x="491.5" y="381.2" width="13.5" height="14.5" fill="#eaf4ff" opacity="0.45" /><rect x="491.5" y="399.7" width="13.5" height="14.5" fill="#eaf4ff" opacity="0.51" /><rect x="508.0" y="270.3" width="13.5" height="14.5" fill="#eaf4ff" opacity="0.28" /><rect x="508.0" y="325.7" width="13.5" height="14.5" fill="#eaf4ff" opacity="0.56" /><rect x="508.0" y="344.2" width="13.5" height="14.5" fill="#eaf4ff" opacity="0.54" /><rect x="508.0" y="381.2" width="13.5" height="14.5" fill="#eaf4ff" opacity="0.41" /><rect x="508.0" y="399.7" width="13.5" height="14.5" fill="#eaf4ff" opacity="0.52" /><rect x="524.5" y="196.4" width="13.5" height="14.5" fill="#eaf4ff" opacity="0.37" /><rect x="524.5" y="214.8" width="13.5" height="14.5" fill="#eaf4ff" opacity="0.36" /><rect x="524.5" y="233.3" width="13.5" height="14.5" fill="#eaf4ff" opacity="0.28" /><rect x="524.5" y="251.8" width="13.5" height="14.5" fill="#eaf4ff" opacity="0.36" /><rect x="524.5" y="270.3" width="13.5" height="14.5" fill="#eaf4ff" opacity="0.43" /><rect x="524.5" y="307.3" width="13.5" height="14.5" fill="#eaf4ff" opacity="0.29" /><rect x="524.5" y="381.2" width="13.5" height="14.5" fill="#eaf4ff" opacity="0.33" /><rect x="524.5" y="399.7" width="13.5" height="14.5" fill="#eaf4ff" opacity="0.53" /><rect x="541.0" y="196.4" width="13.5" height="14.5" fill="#eaf4ff" opacity="0.29" /><rect x="541.0" y="233.3" width="13.5" height="14.5" fill="#eaf4ff" opacity="0.33" /><rect x="541.0" y="251.8" width="13.5" height="14.5" fill="#eaf4ff" opacity="0.41" /><rect x="541.0" y="270.3" width="13.5" height="14.5" fill="#eaf4ff" opacity="0.41" /><rect x="541.0" y="288.8" width="13.5" height="14.5" fill="#eaf4ff" opacity="0.36" /><rect x="541.0" y="307.3" width="13.5" height="14.5" fill="#eaf4ff" opacity="0.28" /><rect x="541.0" y="381.2" width="13.5" height="14.5" fill="#eaf4ff" opacity="0.54" /><rect x="541.0" y="399.7" width="13.5" height="14.5" fill="#eaf4ff" opacity="0.39" /><rect x="557.5" y="214.8" width="13.5" height="14.5" fill="#eaf4ff" opacity="0.35" /><rect x="557.5" y="270.3" width="13.5" height="14.5" fill="#eaf4ff" opacity="0.40" /><rect x="557.5" y="288.8" width="13.5" height="14.5" fill="#eaf4ff" opacity="0.49" /><rect x="557.5" y="307.3" width="13.5" height="14.5" fill="#eaf4ff" opacity="0.59" /><rect x="557.5" y="362.7" width="13.5" height="14.5" fill="#eaf4ff" opacity="0.54" /><rect x="557.5" y="399.7" width="13.5" height="14.5" fill="#eaf4ff" opacity="0.25" /><rect x="586.7" y="123.6" width="94.3" height="288.5" fill="#5c6b74" opacity="0.67" /><rect x="590.7" y="129.6" width="15.9" height="14.0" fill="#eaf4ff" opacity="0.51" /><rect x="590.7" y="147.7" width="15.9" height="14.0" fill="#eaf4ff" opacity="0.56" /><rect x="590.7" y="165.7" width="15.9" height="14.0" fill="#eaf4ff" opacity="0.54" /><rect x="590.7" y="183.7" width="15.9" height="14.0" fill="#eaf4ff" opacity="0.50" /><rect x="590.7" y="237.8" width="15.9" height="14.0" fill="#eaf4ff" opacity="0.52" /><rect x="590.7" y="255.9" width="15.9" height="14.0" fill="#eaf4ff" opacity="0.57" /><rect x="590.7" y="310.0" width="15.9" height="14.0" fill="#eaf4ff" opacity="0.29" /><rect x="590.7" y="328.0" width="15.9" height="14.0" fill="#eaf4ff" opacity="0.33" /><rect x="590.7" y="346.0" width="15.9" height="14.0" fill="#eaf4ff" opacity="0.35" /><rect x="590.7" y="364.0" width="15.9" height="14.0" fill="#eaf4ff" opacity="0.45" /><rect x="590.7" y="400.1" width="15.9" height="14.0" fill="#eaf4ff" opacity="0.27" /><rect x="609.6" y="147.7" width="15.9" height="14.0" fill="#eaf4ff" opacity="0.60" /><rect x="609.6" y="201.8" width="15.9" height="14.0" fill="#eaf4ff" opacity="0.35" /><rect x="609.6" y="219.8" width="15.9" height="14.0" fill="#eaf4ff" opacity="0.44" /><rect x="609.6" y="237.8" width="15.9" height="14.0" fill="#eaf4ff" opacity="0.38" /><rect x="609.6" y="291.9" width="15.9" height="14.0" fill="#eaf4ff" opacity="0.38" /><rect x="609.6" y="346.0" width="15.9" height="14.0" fill="#eaf4ff" opacity="0.27" /><rect x="609.6" y="400.1" width="15.9" height="14.0" fill="#eaf4ff" opacity="0.29" /><rect x="628.4" y="129.6" width="15.9" height="14.0" fill="#eaf4ff" opacity="0.39" /><rect x="628.4" y="147.7" width="15.9" height="14.0" fill="#eaf4ff" opacity="0.46" /><rect x="628.4" y="165.7" width="15.9" height="14.0" fill="#eaf4ff" opacity="0.25" /><rect x="628.4" y="183.7" width="15.9" height="14.0" fill="#eaf4ff" opacity="0.50" /><rect x="628.4" y="219.8" width="15.9" height="14.0" fill="#eaf4ff" opacity="0.42" /><rect x="628.4" y="237.8" width="15.9" height="14.0" fill="#eaf4ff" opacity="0.46" /><rect x="628.4" y="273.9" width="15.9" height="14.0" fill="#eaf4ff" opacity="0.48" /><rect x="628.4" y="291.9" width="15.9" height="14.0" fill="#eaf4ff" opacity="0.57" /><rect x="628.4" y="310.0" width="15.9" height="14.0" fill="#eaf4ff" opacity="0.44" /><rect x="628.4" y="346.0" width="15.9" height="14.0" fill="#eaf4ff" opacity="0.50" /><rect x="628.4" y="364.0" width="15.9" height="14.0" fill="#eaf4ff" opacity="0.29" /><rect x="628.4" y="382.1" width="15.9" height="14.0" fill="#eaf4ff" opacity="0.53" /><rect x="628.4" y="400.1" width="15.9" height="14.0" fill="#eaf4ff" opacity="0.29" /><rect x="647.3" y="129.6" width="15.9" height="14.0" fill="#eaf4ff" opacity="0.57" /><rect x="647.3" y="165.7" width="15.9" height="14.0" fill="#eaf4ff" opacity="0.41" /><rect x="647.3" y="183.7" width="15.9" height="14.0" fill="#eaf4ff" opacity="0.52" /><rect x="647.3" y="219.8" width="15.9" height="14.0" fill="#eaf4ff" opacity="0.29" /><rect x="647.3" y="237.8" width="15.9" height="14.0" fill="#eaf4ff" opacity="0.25" /><rect x="647.3" y="255.9" width="15.9" height="14.0" fill="#eaf4ff" opacity="0.35" /><rect x="647.3" y="273.9" width="15.9" height="14.0" fill="#eaf4ff" opacity="0.35" /><rect x="647.3" y="291.9" width="15.9" height="14.0" fill="#eaf4ff" opacity="0.51" /><rect x="647.3" y="364.0" width="15.9" height="14.0" fill="#eaf4ff" opacity="0.45" /><rect x="666.2" y="129.6" width="15.9" height="14.0" fill="#eaf4ff" opacity="0.38" /><rect x="666.2" y="147.7" width="15.9" height="14.0" fill="#eaf4ff" opacity="0.27" /><rect x="666.2" y="165.7" width="15.9" height="14.0" fill="#eaf4ff" opacity="0.53" /><rect x="666.2" y="183.7" width="15.9" height="14.0" fill="#eaf4ff" opacity="0.51" /><rect x="666.2" y="219.8" width="15.9" height="14.0" fill="#eaf4ff" opacity="0.38" /><rect x="666.2" y="255.9" width="15.9" height="14.0" fill="#eaf4ff" opacity="0.51" /><rect x="666.2" y="291.9" width="15.9" height="14.0" fill="#eaf4ff" opacity="0.38" /><rect x="666.2" y="310.0" width="15.9" height="14.0" fill="#eaf4ff" opacity="0.45" /><rect x="666.2" y="346.0" width="15.9" height="14.0" fill="#eaf4ff" opacity="0.28" /><rect x="666.2" y="364.0" width="15.9" height="14.0" fill="#eaf4ff" opacity="0.50" /><rect x="666.2" y="382.1" width="15.9" height="14.0" fill="#eaf4ff" opacity="0.58" /><rect x="666.2" y="400.1" width="15.9" height="14.0" fill="#eaf4ff" opacity="0.48" /><rect x="707.8" y="192.4" width="80.3" height="219.7" fill="#5c6b74" opacity="0.75" /><rect x="711.8" y="198.4" width="17.1" height="14.3" fill="#eaf4ff" opacity="0.36" /><rect x="711.8" y="235.0" width="17.1" height="14.3" fill="#eaf4ff" opacity="0.60" /><rect x="711.8" y="253.3" width="17.1" height="14.3" fill="#eaf4ff" opacity="0.35" /><rect x="711.8" y="271.6" width="17.1" height="14.3" fill="#eaf4ff" opacity="0.56" /><rect x="711.8" y="326.6" width="17.1" height="14.3" fill="#eaf4ff" opacity="0.39" /><rect x="731.9" y="198.4" width="17.1" height="14.3" fill="#eaf4ff" opacity="0.56" /><rect x="731.9" y="216.7" width="17.1" height="14.3" fill="#eaf4ff" opacity="0.56" /><rect x="731.9" y="235.0" width="17.1" height="14.3" fill="#eaf4ff" opacity="0.32" /><rect x="731.9" y="271.6" width="17.1" height="14.3" fill="#eaf4ff" opacity="0.53" /><rect x="731.9" y="290.0" width="17.1" height="14.3" fill="#eaf4ff" opacity="0.44" /><rect x="731.9" y="344.9" width="17.1" height="14.3" fill="#eaf4ff" opacity="0.49" /><rect x="731.9" y="363.2" width="17.1" height="14.3" fill="#eaf4ff" opacity="0.56" /><rect x="731.9" y="399.8" width="17.1" height="14.3" fill="#eaf4ff" opacity="0.31" /><rect x="752.0" y="235.0" width="17.1" height="14.3" fill="#eaf4ff" opacity="0.26" /><rect x="752.0" y="253.3" width="17.1" height="14.3" fill="#eaf4ff" opacity="0.29" /><rect x="752.0" y="271.6" width="17.1" height="14.3" fill="#eaf4ff" opacity="0.47" /><rect x="752.0" y="308.3" width="17.1" height="14.3" fill="#eaf4ff" opacity="0.58" /><rect x="752.0" y="344.9" width="17.1" height="14.3" fill="#eaf4ff" opacity="0.55" /><rect x="752.0" y="363.2" width="17.1" height="14.3" fill="#eaf4ff" opacity="0.33" /><rect x="752.0" y="381.5" width="17.1" height="14.3" fill="#eaf4ff" opacity="0.44" /><rect x="772.1" y="198.4" width="17.1" height="14.3" fill="#eaf4ff" opacity="0.60" /><rect x="772.1" y="308.3" width="17.1" height="14.3" fill="#eaf4ff" opacity="0.54" /><rect x="772.1" y="363.2" width="17.1" height="14.3" fill="#eaf4ff" opacity="0.46" /><rect x="772.1" y="381.5" width="17.1" height="14.3" fill="#eaf4ff" opacity="0.59" /><rect x="772.1" y="399.8" width="17.1" height="14.3" fill="#eaf4ff" opacity="0.31" /><rect x="809.5" y="167.9" width="107.4" height="244.2" fill="#5c6b74" opacity="0.61" /><rect x="813.5" y="173.9" width="14.9" height="14.8" fill="#eaf4ff" opacity="0.41" /><rect x="813.5" y="192.7" width="14.9" height="14.8" fill="#eaf4ff" opacity="0.30" /><rect x="813.5" y="211.5" width="14.9" height="14.8" fill="#eaf4ff" opacity="0.29" /><rect x="813.5" y="286.6" width="14.9" height="14.8" fill="#eaf4ff" opacity="0.41" /><rect x="813.5" y="305.4" width="14.9" height="14.8" fill="#eaf4ff" opacity="0.43" /><rect x="813.5" y="324.2" width="14.9" height="14.8" fill="#eaf4ff" opacity="0.37" /><rect x="813.5" y="361.8" width="14.9" height="14.8" fill="#eaf4ff" opacity="0.52" /><rect x="831.4" y="192.7" width="14.9" height="14.8" fill="#eaf4ff" opacity="0.26" /><rect x="831.4" y="211.5" width="14.9" height="14.8" fill="#eaf4ff" opacity="0.53" /><rect x="831.4" y="324.2" width="14.9" height="14.8" fill="#eaf4ff" opacity="0.56" /><rect x="831.4" y="343.0" width="14.9" height="14.8" fill="#eaf4ff" opacity="0.57" /><rect x="831.4" y="399.4" width="14.9" height="14.8" fill="#eaf4ff" opacity="0.43" /><rect x="849.3" y="173.9" width="14.9" height="14.8" fill="#eaf4ff" opacity="0.32" /><rect x="849.3" y="192.7" width="14.9" height="14.8" fill="#eaf4ff" opacity="0.56" /><rect x="849.3" y="249.1" width="14.9" height="14.8" fill="#eaf4ff" opacity="0.54" /><rect x="849.3" y="305.4" width="14.9" height="14.8" fill="#eaf4ff" opacity="0.32" /><rect x="849.3" y="343.0" width="14.9" height="14.8" fill="#eaf4ff" opacity="0.45" /><rect x="849.3" y="380.6" width="14.9" height="14.8" fill="#eaf4ff" opacity="0.44" /><rect x="867.2" y="173.9" width="14.9" height="14.8" fill="#eaf4ff" opacity="0.26" /><rect x="867.2" y="267.9" width="14.9" height="14.8" fill="#eaf4ff" opacity="0.47" /><rect x="867.2" y="305.4" width="14.9" height="14.8" fill="#eaf4ff" opacity="0.40" /><rect x="867.2" y="324.2" width="14.9" height="14.8" fill="#eaf4ff" opacity="0.58" /><rect x="867.2" y="343.0" width="14.9" height="14.8" fill="#eaf4ff" opacity="0.44" /><rect x="867.2" y="361.8" width="14.9" height="14.8" fill="#eaf4ff" opacity="0.39" /><rect x="867.2" y="380.6" width="14.9" height="14.8" fill="#eaf4ff" opacity="0.35" /><rect x="885.1" y="192.7" width="14.9" height="14.8" fill="#eaf4ff" opacity="0.49" /><rect x="885.1" y="211.5" width="14.9" height="14.8" fill="#eaf4ff" opacity="0.58" /><rect x="885.1" y="249.1" width="14.9" height="14.8" fill="#eaf4ff" opacity="0.27" /><rect x="885.1" y="267.9" width="14.9" height="14.8" fill="#eaf4ff" opacity="0.26" /><rect x="885.1" y="305.4" width="14.9" height="14.8" fill="#eaf4ff" opacity="0.54" /><rect x="885.1" y="324.2" width="14.9" height="14.8" fill="#eaf4ff" opacity="0.51" /><rect x="885.1" y="343.0" width="14.9" height="14.8" fill="#eaf4ff" opacity="0.47" /><rect x="885.1" y="361.8" width="14.9" height="14.8" fill="#eaf4ff" opacity="0.30" /><rect x="885.1" y="399.4" width="14.9" height="14.8" fill="#eaf4ff" opacity="0.51" /><rect x="903.0" y="249.1" width="14.9" height="14.8" fill="#eaf4ff" opacity="0.45" /><rect x="903.0" y="305.4" width="14.9" height="14.8" fill="#eaf4ff" opacity="0.42" /><rect x="903.0" y="324.2" width="14.9" height="14.8" fill="#eaf4ff" opacity="0.50" /><rect x="903.0" y="399.4" width="14.9" height="14.8" fill="#eaf4ff" opacity="0.29" />
  <line x1="0" y1="412.1" x2="900" y2="412.1" stroke="#ffffff" stroke-width="1" opacity="0.35" />
  <rect x="0" y="412.1" width="900" height="287.9" fill="#5c6b74" opacity="0.9" />
</svg>