<svg xmlns="http://www.w3.org/2000/svg" viewBox="0 0 1920 1400" width="1920" height="1400">
  <defs>
    <linearGradient id="sky" x1="0" y1="0" x2="0" y2="1">
      <stop offset="0%" stop-color="#3a352b" />
      <stop offset="100%" stop-color="#161410" />
    </linearGradient>
  </defs>
  <rect width="1920" height="1400" fill="url(#sky)" />
  <rect x="-20.0" y="265.6" width="255.3" height="576.1" fill="#161410" opacity="0.68" /><rect x="-16.0" y="310.0" width="33.5" height="34.4" fill="#f3c98b" opacity="0.28" /><rect x="-16.0" y="348.4" width="33.5" height="34.4" fill="#f3c98b" opacity="0.46" /><rect x="-16.0" y="386.8" width="33.5" height="34.4" fill="#f3c98b" opacity="0.42" /><rect x="-16.0" y="463.6" width="33.5" height="34.4" fill="#f3c98b" opacity="0.48" /><rect x="-16.0" y="540.4" width="33.5" height="34.4" fill="#f3c98b" opacity="0.31" /><rect x="-16.0" y="578.8" width="33.5" height="34.4" fill="#f3c98b" opacity="0.39" /><rect x="-16.0" y="617.2" width="33.5" height="34.4" fill="#f3c98b" opacity="0.45" /><rect x="-16.0" y="655.6" width="33.5" height="34.4" fill="#f3c98b" opacity="0.46" /><rect x="-16.0" y="732.4" width="33.5" height="34.4" fill="#f3c98b" opacity="0.55" /><rect x="20.5" y="271.6" width="33.5" height="34.4" fill="#f3c98b" opacity="0.47" /><rect x="20.5" y="310.0" width="33.5" height="34.4" fill="#f3c98b" opacity="0.27" /><rect x="20.5" y="425.2" width="33.5" height="34.4" fill="#f3c98b" opacity="0.30" /><rect x="20.5" y="502.0" width="33.5" height="34.4" fill="#f3c98b" opacity="0.44" /><rect x="20.5" y="617.2" width="33.5" height="34.4" fill="#f3c98b" opacity="0.55" /><rect x="20.5" y="694.0" width="33.5" height="34.4" fill="#f3c98b" opacity="0.26" /><rect x="20.5" y="732.4" width="33.5" height="34.4" fill="#f3c98b" opacity="0.54" /><rect x="20.5" y="770.8" width="33.5" height="34.4" fill="#f3c98b" opacity="0.43" /><rect x="20.5" y="809.2" width="33.5" height="34.4" fill="#f3c98b" opacity="0.43" /><rect x="57.0" y="310.0" width="33.5" height="34.4" fill="#f3c98b" opacity="0.48" /><rect x="57.0" y="348.4" width="33.5" height="34.4" fill="#f3c98b" opacity="0.41" /><rect x="57.0" y="463.6" width="33.5" height="34.4" fill="#f3c98b" opacity="0.41" /><rect x="57.0" y="502.0" width="33.5" height="34.4" fill="#f3c98b" opacity="0.27" /><rect x="57.0" y="578.8" width="33.5" height="34.4" fill="#f3c98b" opacity="0.52" /><rect x="57.0" y="617.2" width="33.5" height="34.4" fill="#f3c98b" opacity="0.44" /><rect x="57.0" y="655.6" width="33.5" height="34.4" fill="#f3c98b" opacity="0.54" /><rect x="57.0" y="694.0" width="33.5" height="34.4" fill="#f3c98b" opacity="0.29" /><rect x="57.0" y="809.2" width="33.5" height="34.4" fill="#f3c98b" opacity="0.38" /><rect x="93.4" y="271.6" width="33.5" height="34.4" fill="#f3c98b" opacity="0.58" /><rect x="93.4" y="386.8" width="33.5" height="34.4" fill="#f3c98b" opacity="0.57" /><rect x="93.4" y="463.6" width="33.5" height="34.4" fill="#f3c98b" opacity="0.36" /><rect x="93.4" y="502.0" width="33.5" height="34.4" fill="#f3c98b" opacity="0.25" /><rect x="93.4" y="578.8" width="33.5" height="34.4" fill="#f3c98b" opacity="0.39" /><rect x="93.4" y="617.2" width="33.5" height="34.4" fill="#f3c98b" opacity="0.28" /><rect x="93.4" y="694.0" width="33.5" height="34.4" fill="#f3c98b" opacity="0.43" /><rect x="93.4" y="732.4" width="33.5" height="34.4" fill="#f3c98b" opacity="0.45" /><rect x="129.9" y="425.2" width="33.5" height="34.4" fill="#f3c98b" opacity="0.28" /><rect x="129.9" y="617.2" width="33.5" height="34.4" fill="#f3c98b" opacity="0.30" /><rect x="129.9" y="732.4" width="33.5" height="34.4" fill="#f3c98b" opacity="0.57" /><rect x="129.9" y="770.8" width="33.5" height="34.4" fill="#f3c98b" opacity="0.52" /><rect x="166.4" y="271.6" width="33.5" height="34.4" fill="#f3c98b" opacity="0.35" /><rect x="166.4" y="348.4" width="33.5" height="34.4" fill="#f3c98b" opacity="0.47" /><rect x="166.4" y="386.8" width="33.5" height="34.4" fill="#f3c98b" opacity="0.50" /><rect x="166.4" y="425.2" width="33.5" height="34.4" fill="#f3c98b" opacity="0.28" /><rect x="166.4" y="502.0" width="33.5" height="34.4" fill="#f3c98b" opacity="0.31" /><rect x="166.4" y="655.6" width="33.5" height="34.4" fill="#f3c98b" opacity="0.40" /><rect x="202.9" y="271.6" width="33.5" height="34.4" fill="#f3c98b" opacity="0.42" /><rect x="202.9" y="310.0" width="33.5" height="34.4" fill="#f3c98b" opacity="0.31" /><rect x="202.9" y="386.8" width="33.5" height="34.4" fill="#f3c98b" opacity="0.28" /><rect x="202.9" y="655.6" width="33.5" height="34.4" fill="#f3c98b" opacity="0.31" /><rect x="202.9" y="732.4" width="33.5" height="34.4" fill="#f3c98b" opacity="0.40" /><rect x="202.9" y="770.8" width="33.5" height="34.4" fill="#f3c98b" opacity="0.27" /><rect x="202.9" y="809.2" width="33.5" height="34.4" fill="#f3c98b" opacity="0.41" /><rect x="264.9" y="211.0" width="233.7" height="630.7" fill="#161410" opacity="0.62" /><rect x="268.9" y="217.0" width="36.0" height="35.4" fill="#f3c98b" opacity="0.46" /><rect x="268.9" y="256.4" width="36.0" height="35.4" fill="#f3c98b" opacity="0.59" /><rect x="268.9" y="295.8" width="36.0" height="35.4" fill="#f3c98b" opacity="0.41" /><rect x="268.9" y="335.2" width="36.0" height="35.4" fill="#f3c98b" opacity="0.49" /><rect x="268.9" y="374.6" width="36.0" height="35.4" fill="#f3c98b" opacity="0.45" /><rect x="268.9" y="453.5" width="36.0" height="35.4" fill="#f3c98b" opacity="0.30" /><rect x="268.9" y="492.9" width="36.0" height="35.4" fill="#f3c98b" opacity="0.54" /><rect x="268.9" y="532.3" width="36.0" height="35.4" fill="#f3c98b" opacity="0.54" /><rect x="268.9" y="571.7" width="36.0" height="35.4" fill="#f3c98b" opacity="0.47" /><rect x="268.9" y="729.4" width="36.0" height="35.4" fill="#f3c98b" opacity="0.28" /><rect x="268.9" y="808.2" width="36.0" height="35.4" fill="#f3c98b" opacity="0.29" /><rect x="307.9" y="217.0" width="36.0" height="35.4" fill="#f3c98b" opacity="0.28" /><rect x="307.9" y="492.9" width="36.0" height="35.4" fill="#f3c98b" opacity="0.52" /><rect x="307.9" y="532.3" width="36.0" height="35.4" fill="#f3c98b" opacity="0.32" /><rect x="307.9" y="571.7" width="36.0" height="35.4" fill="#f3c98b" opacity="0.47" /><rect x="307.9" y="611.1" width="36.0" height="35.4" fill="#f3c98b" opacity="0.45" /><rect x="307.9" y="729.4" width="36.0" height="35.4" fill="#f3c98b" opacity="0.56" /><rect x="307.9" y="768.8" width="36.0" height="35.4" fill="#f3c98b" opacity="0.43" /><rect x="346.8" y="217.0" width="36.0" height="35.4" fill="#f3c98b" opacity="0.59" /><rect x="346.8" y="256.4" width="36.0" height="35.4" fill="#f3c98b" opacity="0.56" /><rect x="346.8" y="295.8" width="36.0" height="35.4" fill="#f3c98b" opacity="0.57" /><rect x="346.8" y="374.6" width="36.0" height="35.4" fill="#f3c98b" opacity="0.41" /><rect x="346.8" y="414.0" width="36.0" height="35.4" fill="#f3c98b" opacity="0.28" /><rect x="346.8" y="453.5" width="36.0" height="35.4" fill="#f3c98b" opacity="0.28" /><rect x="346.8" y="492.9" width="36.0" height="35.4" fill="#f3c98b" opacity="0.58" /><rect x="346.8" y="611.1" width="36.0" height="35.4" fill="#f3c98b" opacity="0.58" /><rect x="346.8" y="650.5" width="36.0" height="35.4" fill="#f3c98b" opacity="0.54" /><rect x="346.8" y="690.0" width="36.0" height="35.4" fill="#f3c98b" opacity="0.27" /><rect x="346.8" y="729.4" width="36.0" height="35.4" fill="#f3c98b" opacity="0.38" /><rect x="346.8" y="768.8" width="36.0" height="35.4" fill="#f3c98b" opacity="0.38" /><rect x="346.8" y="808.2" width="36.0" height="35.4" fill="#f3c98b" opacity="0.56" /><rect x="385.8" y="256.4" width="36.0" height="35.4" fill="#f3c98b" opacity="0.60" /><rect x="385.8" y="295.8" width="36.0" height="35.4" fill="#f3c98b" opacity="0.45" /><rect x="385.8" y="335.2" width="36.0" height="35.4" fill="#f3c98b" opacity="0.34" /><rect x="385.8" y="374.6" width="36.0" height="35.4" fill="#f3c98b" opacity="0.58" /><rect x="385.8" y="414.0" width="36.0" height="35.4" fill="#f3c98b" opacity="0.42" /><rect x="385.8" y="453.5" width="36.0" height="35.4" fill="#f3c98b" opacity="0.29" /><rect x="385.8" y="492.9" width="36.0" height="35.4" fill="#f3c98b" opacity="0.47" /><rect x="385.8" y="532.3" width="36.0" height="35.4" fill="#f3c98b" opacity="0.28" /><rect x="385.8" y="611.1" width="36.0" height="35.4" fill="#f3c98b" opacity="0.32" /><rect x="385.8" y="650.5" width="36.0" height="35.4" fill="#f3c98b" opacity="0.52" /><rect x="385.8" y="808.2" width="36.0" height="35.4" fill="#f3c98b" opacity="0.52" /><rect x="424.7" y="256.4" width="36.0" height="35.4" fill="#f3c98b" opacity="0.50" /><rect x="424.7" y="295.8" width="36.0" height="35.4" fill="#f3c98b" opacity="0.30" /><rect x="424.7" y="335.2" width="36.0" height="35.4" fill="#f3c98b" opacity="0.49" /><rect x="424.7" y="374.6" width="36.0" height="35.4" fill="#f3c98b" opacity="0.57" /><rect x="424.7" y="453.5" width="36.0" height="35.4" fill="#f3c98b" opacity="0.56" /><rect x="424.7" y="492.9" width="36.0" height="35.4" fill="#f3c98b" opacity="0.50" /><rect x="424.7" y="650.5" width="36.0" height="35.4" fill="#f3c98b" opacity="0.33" /><rect x="424.7" y="690.0" width="36.0" height="35.4" fill="#f3c98b" opacity="0.50" /><rect x="424.7" y="768.8" width="36.0" height="35.4" fill="#f3c98b" opacity="0.50" /><rect x="424.7" y="808.2" width="36.0" height="35.4" fill="#f3c98b" opacity="0.40" /><rect x="463.7" y="256.4" width="36.0" height="35.4" fill="#f3c98b" opacity="0.58" /><rect x="463.7" y="335.2" width="36.0" height="35.4" fill="#f3c98b" opacity="0.28" /><rect x="463.7" y="374.6" width="36.0" height="35.4" fill="#f3c98b" opacity="0.26" /><rect x="463.7" y="453.5" width="36.0" height="35.4" fill="#f3c98b" opacity="0.48" /><rect x="463.7" y="492.9" width="36.0" height="35.4" fill="#f3c98b" opacity="0.36" /><rect x="463.7" y="768.8" width="36.0" height="35.4" fill="#f3c98b" opacity="0.39" /><rect x="463.7" y="808.2" width="36.0" height="35.4" fill="#f3c98b" opacity="0.56" /><rect x="521.7" y="342.9" width="258.4" height="498.7" fill="#161410" opacity="0.70" /><rect x="525.7" y="348.9" width="33.9" height="37.6" fill="#f3c98b" opacity="0.32" /><rect x="525.7" y="432.1" width="33.9" height="37.6" fill="#f3c98b" opacity="0.36" /><rect x="525.7" y="473.6" width="33.9" height="37.6" fill="#f3c98b" opacity="0.56" /><rect x="525.7" y="515.2" width="33.9" height="37.6" fill="#f3c98b" opacity="0.28" /><rect x="525.7" y="598.3" width="33.9" height="37.6" fill="#f3c98b" opacity="0.32" /><rect x="525.7" y="639.8" width="33.9" height="37.6" fill="#f3c98b" opacity="0.27" /><rect x="525.7" y="681.4" width="33.9" height="37.6" fill="#f3c98b" opacity="0.57" /><rect x="525.7" y="723.0" width="33.9" height="37.6" fill="#f3c98b" opacity="0.57" /><rect x="525.7" y="764.5" width="33.9" height="37.6" fill="#f3c98b" opacity="0.37" /><rect x="562.6" y="348.9" width="33.9" height="37.6" fill="#f3c98b" opacity="0.38" /><rect x="562.6" y="639.8" width="33.9" height="37.6" fill="#f3c98b" opacity="0.28" /><rect x="562.6" y="681.4" width="33.9" height="37.6" fill="#f3c98b" opacity="0.33" /><rect x="562.6" y="764.5" width="33.9" height="37.6" fill="#f3c98b" opacity="0.30" /><rect x="562.6" y="806.1" width="33.9" height="37.6" fill="#f3c98b" opacity="0.54" /><rect x="599.5" y="390.5" width="33.9" height="37.6" fill="#f3c98b" opacity="0.38" /><rect x="599.5" y="432.1" width="33.9" height="37.6" fill="#f3c98b" opacity="0.33" /><rect x="599.5" y="515.2" width="33.9" height="37.6" fill="#f3c98b" opacity="0.25" /><rect x="599.5" y="556.7" width="33.9" height="37.6" fill="#f3c98b" opacity="0.26" /><rect x="599.5" y="598.3" width="33.9" height="37.6" fill="#f3c98b" opacity="0.43" /><rect x="599.5" y="639.8" width="33.9" height="37.6" fill="#f3c98b" opacity="0.55" /><rect x="599.5" y="723.0" width="33.9" height="37.6" fill="#f3c98b" opacity="0.37" /><rect x="599.5" y="764.5" width="33.9" height="37.6" fill="#f3c98b" opacity="0.30" /><rect x="599.5" y="806.1" width="33.9" height="37.6" fill="#f3c98b" opacity="0.40" /><rect x="636.4" y="432.1" width="33.9" height="37.6" fill="#f3c98b" opacity="0.55" /><rect x="636.4" y="473.6" width="33.9" height="37.6" fill="#f3c98b" opacity="0.36" /><rect x="636.4" y="639.8" width="33.9" height="37.6" fill="#f3c98b" opacity="0.50" /><rect x="636.4" y="681.4" width="33.9" height="37.6" fill="#f3c98b" opacity="0.39" /><rect x="636.4" y="723.0" width="33.9" height="37.6" fill="#f3c98b" opacity="0.59" /><rect x="636.4" y="764.5" width="33.9" height="37.6" fill="#f3c98b" opacity="0.47" /><rect x="636.4" y="806.1" width="33.9" height="37.6" fill="#f3c98b" opacity="0.47" /><rect x="673.4" y="348.9" width="33.9" height="37.6" fill="#f3c98b" opacity="0.47" /><rect x="673.4" y="390.5" width="33.9" height="37.6" fill="#f3c98b" opacity="0.53" /><rect x="673.4" y="473.6" width="33.9" height="37.6" fill="#f3c98b" opacity="0.59" /><rect x="673.4" y="515.2" width="33.9" height="37.6" fill="#f3c98b" opacity="0.37" /><rect x="673.4" y="556.7" width="33.9" height="37.6" fill="#f3c98b" opacity="0.25" /><rect x="673.4" y="639.8" width="33.9" height="37.6" fill="#f3c98b" opacity="0.43" /><rect x="673.4" y="764.5" width="33.9" height="37.6" fill="#f3c98b" opacity="0.57" /><rect x="673.4" y="806.1" width="33.9" height="37.6" fill="#f3c98b" opacity="0.44" /><rect x="710.3" y="348.9" width="33.9" height="37.6" fill="#f3c98b" opacity="0.37" /><rect x="710.3" y="390.5" width="33.9" height="37.6" fill="#f3c98b" opacity="0.26" /><rect x="710.3" y="432.1" width="33.9" height="37.6" fill="#f3c98b" opacity="0.27" /><rect x="710.3" y="473.6" width="33.9" height="37.6" fill="#f3c98b" opacity="0.46" /><rect x="710.3" y="515.2" width="33.9" height="37.6" fill="#f3c98b" opacity="0.34" /><rect x="710.3" y="556.7" width="33.9" height="37.6" fill="#f3c98b" opacity="0.47" /><rect x="710.3" y="681.4" width="33.9" height="37.6" fill="#f3c98b" opacity="0.40" /><rect x="710.3" y="723.0" width="33.9" height="37.6" fill="#f3c98b" opacity="0.49" /><rect x="710.3" y="764.5" width="33.9" height="37.6" fill="#f3c98b" opacity="0.31" /><rect x="747.2" y="348.9" width="33.9" height="37.6" fill="#f3c98b" opacity="0.31" /><rect x="747.2" y="432.1" width="33.9" height="37.6" fill="#f3c98b" opacity="0.33" /><rect x="747.2" y="473.6" width="33.9" height="37.6" fill="#f3c98b" opacity="0.25" /><rect x="747.2" y="515.2" width="33.9" height="37.6" fill="#f3c98b" opacity="0.27" /><rect x="747.2" y="556.7" width="33.9" height="37.6" fill="#f3c98b" opacity="0.43" /><rect x="747.2" y="598.3" width="33.9" height="37.6" fill="#f3c98b" opacity="0.59" /><rect x="747.2" y="723.0" width="33.9" height="37.6" fill="#f3c98b" opacity="0.48" /><rect x="747.2" y="764.5" width="33.9" height="37.6" fill="#f3c98b" opacity="0.56" /><rect x="747.2" y="806.1" width="33.9" height="37.6" fill="#f3c98b" opacity="0.52" /><rect x="806.0" y="115.6" width="200.0" height="726.0" fill="#161410" opacity="0.59" /><rect x="810.0" y="121.6" width="37.0" height="36.3" fill="#f3c98b" opacity="0.55" /><rect x="810.0" y="202.3" width="37.0" height="36.3" fill="#f3c98b" opacity="0.25" /><rect x="810.0" y="242.6" width="37.0" height="36.3" fill="#f3c98b" opacity="0.42" /><rect x="810.0" y="282.9" width="37.0" height="36.3" fill="#f3c98b" opacity="0.49" /><rect x="810.0" y="403.9" width="37.0" height="36.3" fill="#f3c98b" opacity="0.32" /><rect x="810.0" y="565.3" width="37.0" height="36.3" fill="#f3c98b" opacity="0.36" /><rect x="810.0" y="605.6" width="37.0" height="36.3" fill="#f3c98b" opacity="0.43" /><rect x="810.0" y="726.6" width="37.0" height="36.3" fill="#f3c98b" opacity="0.35" /><rect x="810.0" y="767.0" width="37.0" height="36.3" fill="#f3c98b" opacity="0.58" /><rect x="850.0" y="121.6" width="37.0" height="36.3" fill="#f3c98b" opacity="0.30" /><rect x="850.0" y="242.6" width="37.0" height="36.3" fill="#f3c98b" opacity="0.56" /><rect x="850.0" y="282.9" width="37.0" height="36.3" fill="#f3c98b" opacity="0.58" /><rect x="850.0" y="323.3" width="37.0" height="36.3" fill="#f3c98b" opacity="0.33" /><rect x="850.0" y="444.3" width="37.0" height="36.3" fill="#f3c98b" opacity="0.35" /><rect x="850.0" y="484.6" width="37.0" height="36.3" fill="#f3c98b" opacity="0.37" /><rect x="850.0" y="605.6" width="37.0" height="36.3" fill="#f3c98b" opacity="0.40" /><rect x="850.0" y="645.9" width="37.0" height="36.3" fill="#f3c98b" opacity="0.39" /><rect x="850.0" y="686.3" width="37.0" height="36.3" fill="#f3c98b" opacity="0.50" /><rect x="850.0" y="726.6" width="37.0" height="36.3" fill="#f3c98b" opacity="0.36" /><rect x="850.0" y="767.0" width="37.0" height="36.3" fill="#f3c98b" opacity="0.58" /><rect x="850.0" y="807.3" width="37.0" height="36.3" fill="#f3c98b" opacity="0.25" /><rect x="890.0" y="161.9" width="37.0" height="36.3" fill="#f3c98b" opacity="0.25" /><rect x="890.0" y="282.9" width="37.0" height="36.3" fill="#f3c98b" opacity="0.51" /><rect x="890.0" y="323.3" width="37.0" height="36.3" fill="#f3c98b" opacity="0.27" /><rect x="890.0" y="363.6" width="37.0" height="36.3" fill="#f3c98b" opacity="0.26" /><rect x="890.0" y="403.9" width="37.0" height="36.3" fill="#f3c98b" opacity="0.58" /><rect x="890.0" y="645.9" width="37.0" height="36.3" fill="#f3c98b" opacity="0.27" /><rect x="890.0" y="686.3" width="37.0" height="36.3" fill="#f3c98b" opacity="0.29" /><rect x="890.0" y="726.6" width="37.0" height="36.3" fill="#f3c98b" opacity="0.39" /><rect x="890.0" y="767.0" width="37.0" height="36.3" fill="#f3c98b" opacity="0.30" /><rect x="930.0" y="121.6" width="37.0" height="36.3" fill="#f3c98b" opacity="0.56" /><rect x="930.0" y="202.3" width="37.0" height="36.3" fill="#f3c98b" opacity="0.43" /><rect x="930.0" y="282.9" width="37.0" height="36.3" fill="#f3c98b" opacity="0.39" /><rect x="930.0" y="403.9" width="37.0" height="36.3" fill="#f3c98b" opacity="0.47" /><rect x="930.0" y="444.3" width="37.0" height="36.3" fill="#f3c98b" opacity="0.32" /><rect x="930.0" y="565.3" width="37.0" height="36.3" fill="#f3c98b" opacity="0.28" /><rect x="930.0" y="605.6" width="37.0" height="36.3" fill="#f3c98b" opacity="0.42" /><rect x="930.0" y="645.9" width="37.0" height="36.3" fill="#f3c98b" opacity="0.52" /><rect x="930.0" y="726.6" width="37.0" height="36.3" fill="#f3c98b" opacity="0.38" /><rect x="930.0" y="767.0" width="37.0" height="36.3" fill="#f3c98b" opacity="0.49" /><rect x="930.0" y="807.3" width="37.0" height="36.3" fill="#f3c98b" opacity="0.34" /><rect x="970.0" y="121.6" width="37.0" height="36.3" fill="#f3c98b" opacity="0.26" /><rect x="970.0" y="202.3" width="37.0" height="36.3" fill="#f3c98b" opacity="0.46" /><rect x="970.0" y="242.6" width="37.0" height="36.3" fill="#f3c98b" opacity="0.55" /><rect x="970.0" y="323.3" width="37.0" height="36.3" fill="#f3c98b" opacity="0.37" /><rect x="970.0" y="363.6" width="37.0" height="36.3" fill="#f3c98b" opacity="0.35" /><rect x="970.0" y="403.9" width="37.0" height="36.3" fill="#f3c98b" opacity="0.54" /><rect x="970.0" y="444.3" width="37.0" height="36.3" fill="#f3c98b" opacity="0.45" /><rect x="970.0" y="484.6" width="37.0" height="36.3" fill="#f3c98b" opacity="0.43" /><rect x="970.0" y="605.6" width="37.0" height="36.3" fill="#f3c98b" opacity="0.42" /><rect x="970.0" y="686.3" width="37.0" height="36.3" fill="#f3c98b" opacity="0.51" /><rect x="970.0" y="726.6" width="37.0" height="36.3" fill="#f3c98b" opacity="0.51" /><rect x="1044.8" y="540.9" width="286.5" height="300.7" fill="#161410" opacity="0.59" /><rect x="1048.8" y="546.9" width="32.8" height="39.0" fill="#f3c98b" opacity="0.48" /><rect x="1048.8" y="589.8" width="32.8" height="39.0" fill="#f3c98b" opacity="0.48" /><rect x="1048.8" y="761.7" width="32.8" height="39.0" fill="#f3c98b" opacity="0.51" /><rect x="1084.6" y="632.8" width="32.8" height="39.0" fill="#f3c98b" opacity="0.30" /><rect x="1084.6" y="675.8" width="32.8" height="39.0" fill="#f3c98b" opacity="0.31" /><rect x="1084.6" y="718.7" width="32.8" height="39.0" fill="#f3c98b" opacity="0.39" /><rect x="1084.6" y="761.7" width="32.8" height="39.0" fill="#f3c98b" opacity="0.28" /><rect x="1084.6" y="804.7" width="32.8" height="39.0" fill="#f3c98b" opacity="0.52" /><rect x="1120.4" y="632.8" width="32.8" height="39.0" fill="#f3c98b" opacity="0.31" /><rect x="1120.4" y="675.8" width="32.8" height="39.0" fill="#f3c98b" opacity="0.45" /><rect x="1120.4" y="804.7" width="32.8" height="39.0" fill="#f3c98b" opacity="0.36" /><rect x="1156.2" y="546.9" width="32.8" height="39.0" fill="#f3c98b" opacity="0.28" /><rect x="1156.2" y="589.8" width="32.8" height="39.0" fill="#f3c98b" opacity="0.57" /><rect x="1156.2" y="632.8" width="32.8" height="39.0" fill="#f3c98b" opacity="0.40" /><rect x="1156.2" y="675.8" width="32.8" height="39.0" fill="#f3c98b" opacity="0.48" /><rect x="1156.2" y="718.7" width="32.8" height="39.0" fill="#f3c98b" opacity="0.60" /><rect x="1156.2" y="761.7" width="32.8" height="39.0" fill="#f3c98b" opacity="0.31" /><rect x="1192.0" y="546.9" width="32.8" height="39.0" fill="#f3c98b" opacity="0.33" /><rect x="1192.0" y="589.8" width="32.8" height="39.0" fill="#f3c98b" opacity="0.36" /><rect x="1192.0" y="761.7" width="32.8" height="39.0" fill="#f3c98b" opacity="0.45" /><rect x="1227.8" y="632.8" width="32.8" height="39.0" fill="#f3c98b" opacity="0.55" /><rect x="1227.8" y="675.8" width="32.8" height="39.0" fill="#f3c98b" opacity="0.27" /><rect x="1227.8" y="804.7" width="32.8" height="39.0" fill="#f3c98b" opacity="0.28" /><rect x="1263.6" y="546.9" width="32.8" height="39.0" fill="#f3c98b" opacity="0.36" /><rect x="1263.6" y="675.8" width="32.8" height="39.0" fill="#f3c98b" opacity="0.45" /><rect x="1263.6" y="804.7" width="32.8" height="39.0" fill="#f3c98b" opacity="0.28" /><rect x="1299.5" y="589.8" width="32.8" height="39.0" fill="#f3c98b" opacity="0.45" /><rect x="1299.5" y="761.7" width="32.8" height="39.0" fill="#f3c98b" opacity="0.37" /><rect x="1379.0" y="142.5" width="296.5" height="699.1" fill="#161410" opacity="0.55" /><rect x="1383.0" y="148.5" width="34.1" height="34.8" fill="#f3c98b" opacity="0.48" /><rect x="1383.0" y="187.4" width="34.1" height="34.8" fill="#f3c98b" opacity="0.41" /><rect x="1383.0" y="265.0" width="34.1" height="34.8" fill="#f3c98b" opacity="0.57" /><rect x="1383.0" y="303.9" width="34.1" height="34.8" fill="#f3c98b" opacity="0.25" /><rect x="1383.0" y="498.1" width="34.1" height="34.8" fill="#f3c98b" opacity="0.30" /><rect x="1383.0" y="614.6" width="34.1" height="34.8" fill="#f3c98b" opacity="0.35" /><rect x="1383.0" y="769.9" width="34.1" height="34.8" fill="#f3c98b" opacity="0.36" /><rect x="1383.0" y="808.8" width="34.1" height="34.8" fill="#f3c98b" opacity="0.27" /><rect x="1420.0" y="187.4" width="34.1" height="34.8" fill="#f3c98b" opacity="0.52" /><rect x="1420.0" y="303.9" width="34.1" height="34.8" fill="#f3c98b" opacity="0.30" /><rect x="1420.0" y="459.2" width="34.1" height="34.8" fill="#f3c98b" opacity="0.35" /><rect x="1420.0" y="498.1" width="34.1" height="34.8" fill="#f3c98b" opacity="0.38" /><rect x="1420.0" y="575.8" width="34.1" height="34.8" fill="#f3c98b" opacity="0.43" /><rect x="1420.0" y="614.6" width="34.1" height="34.8" fill="#f3c98b" opacity="0.45" /><rect x="1420.0" y="769.9" width="34.1" height="34.8" fill="#f3c98b" opacity="0.54" /><rect x="1420.0" y="808.8" width="34.1" height="34.8" fill="#f3c98b" opacity="0.41" /><rect x="1457.1" y="187.4" width="34.1" height="34.8" fill="#f3c98b" opacity="0.51" /><rect x="1457.1" y="303.9" width="34.1" height="34.8" fill="#f3c98b" opacity="0.31" /><rect x="1457.1" y="342.7" width="34.1" height="34.8" fill="#f3c98b" opacity="0.49" /><rect x="1457.1" y="459.2" width="34.1" height="34.8" fill="#f3c98b" opacity="0.29" /><rect x="1457.1" y="498.1" width="34.1" height="34.8" fill="#f3c98b" opacity="0.57" /><rect x="1457.1" y="692.3" width="34.1" height="34.8" fill="#f3c98b" opacity="0.43" /><rect x="1457.1" y="731.1" width="34.1" height="34.8" fill="#f3c98b" opacity="0.33" /><rect x="1457.1" y="769.9" width="34.1" height="34.8" fill="#f3c98b" opacity="0.47" /><rect x="1457.1" y="808.8" width="34.1" height="34.8" fill="#f3c98b" opacity="0.31" /><rect x="1494.2" y="148.5" width="34.1" height="34.8" fill="#f3c98b" opacity="0.36" /><rect x="1494.2" y="187.4" width="34.1" height="34.8" fill="#f3c98b" opacity="0.46" /><rect x="1494.2" y="303.9" width="34.1" height="34.8" fill="#f3c98b" opacity="0.48" /><rect x="1494.2" y="342.7" width="34.1" height="34.8" fill="#f3c98b" opacity="0.33" /><rect x="1494.2" y="381.6" width="34.1" height="34.8" fill="#f3c98b" opacity="0.41" /><rect x="1494.2" y="420.4" width="34.1" height="34.8" fill="#f3c98b" opacity="0.28" /><rect x="1494.2" y="498.1" width="34.1" height="34.8" fill="#f3c98b" opacity="0.29" /><rect x="1494.2" y="575.8" width="34.1" height="34.8" fill="#f3c98b" opacity="0.29" /><rect x="1494.2" y="653.4" width="34.1" height="34.8" fill="#f3c98b" opacity="0.33" /><rect x="1531.2" y="265.0" width="34.1" height="34.8" fill="#f3c98b" opacity="0.39" /><rect x="1531.2" y="303.9" width="34.1" height="34.8" fill="#f3c98b" opacity="0.55" /><rect x="1531.2" y="342.7" width="34.1" height="34.8" fill="#f3c98b" opacity="0.26" /><rect x="1531.2" y="420.4" width="34.1" height="34.8" fill="#f3c98b" opacity="0.34" /><rect x="1531.2" y="459.2" width="34.1" height="34.8" fill="#f3c98b" opacity="0.42" /><rect x="1531.2" y="536.9" width="34.1" height="34.8" fill="#f3c98b" opacity="0.56" /><rect x="1531.2" y="575.8" width="34.1" height="34.8" fill="#f3c98b" opacity="0.27" /><rect x="1531.2" y="614.6" width="34.1" height="34.8" fill="#f3c98b" opacity="0.30" /><rect x="1531.2" y="692.3" width="34.1" height="34.8" fill="#f3c98b" opacity="0.46" /><rect x="1531.2" y="731.1" width="34.1" height="34.8" fill="#f3c98b" opacity="0.53" /><rect x="1531.2" y="808.8" width="34.1" height="34.8" fill="#f3c98b" opacity="0.59" /><rect x="1568.3" y="148.5" width="34.1" height="34.8" fill="#f3c98b" opacity="0.40" /><rect x="1568.3" y="226.2" width="34.1" height="34.8" fill="#f3c98b" opacity="0.25" /><rect x="1568.3" y="303.9" width="34.1" height="34.8" fill="#f3c98b" opacity="0.43" /><rect x="1568.3" y="420.4" width="34.1" height="34.8" fill="#f3c98b" opacity="0.44" /><rect x="1568.3" y="536.9" width="34.1" height="34.8" fill="#f3c98b" opacity="0.53" /><rect x="1568.3" y="614.6" width="34.1" height="34.8" fill="#f3c98b" opacity="0.33" /><rect x="1568.3" y="692.3" width="34.1" height="34.8" fill="#f3c98b" opacity="0.54" /><rect x="1605.4" y="148.5" width="34.1" height="34.8" fill="#f3c98b" opacity="0.54" /><rect x="1605.4" y="226.2" width="34.1" height="34.8" fill="#f3c98b" opacity="0.58" /><rect x="1605.4" y="265.0" width="34.1" height="34.8" fill="#f3c98b" opacity="0.27" /><rect x="1605.4" y="303.9" width="34.1" height="34.8" fill="#f3c98b" opacity="0.39" /><rect x="1605.4" y="381.6" width="34.1" height="34.8" fill="#f3c98b" opacity="0.33" /><rect x="1605.4" y="536.9" width="34.1" height="34.8" fill="#f3c98b" opacity="0.55" /><rect x="1605.4" y="575.8" width="34.1" height="34.8" fill="#f3c98b" opacity="0.57" /><rect x="1605.4" y="614.6" width="34.1" height="34.8" fill="#f3c98b" opacity="0.33" /><rect x="1605.4" y="692.3" width="34.1" height="34.8" fill="#f3c98b" opacity="0.60" /><rect x="1642.4" y="226.2" width="34.1" height="34.8" fill="#f3c98b" opacity="0.59" /><rect x="1642.4" y="303.9" width="34.1" height="34.8" fill="#f3c98b" opacity="0.50" /><rect x="1642.4" y="420.4" width="34.1" height="34.8" fill="#f3c98b" opacity="0.51" /><rect x="1642.4" y="459.2" width="34.1" height="34.8" fill="#f3c98b" opacity="0.47" /><rect x="1642.4" y="498.1" width="34.1" height="34.8" fill="#f3c98b" opacity="0.54" /><rect x="1642.4" y="536.9" width="34.1" height="34.8" fill="#f3c98b" opacity="0.59" /><rect x="1642.4" y="575.8" width="34.1" height="34.8" fill="#f3c98b" opacity="0.29" /><rect x="1642.4" y="614.6" width="34.1" height="34.8" fill="#f3c98b" opacity="0.30" /><rect x="1642.4" y="808.8" width="34.1" height="34.8" fill="#f3c98b" opacity="0.55" /><rect x="1729.9" y="218.7" width="289.3" height="622.9" fill="#161410" opacity="0.63" /><rect x="1733.9" y="224.7" width="33.2" height="34.9" fill="#f3c98b" opacity="0.46" /><rect x="1733.9" y="263.6" width="33.2" height="34.9" fill="#f3c98b" opacity="0.49" /><rect x="1733.9" y="341.5" width="33.2" height="34.9" fill="#f3c98b" opacity="0.35" /><rect x="1733.9" y="419.4" width="33.2" height="34.9" fill="#f3c98b" opacity="0.40" /><rect x="1733.9" y="497.2" width="33.2" height="34.9" fill="#f3c98b" opacity="0.54" /><rect x="1733.9" y="575.1" width="33.2" height="34.9" fill="#f3c98b" opacity="0.32" /><rect x="1733.9" y="614.0" width="33.2" height="34.9" fill="#f3c98b" opacity="0.58" /><rect x="1733.9" y="653.0" width="33.2" height="34.9" fill="#f3c98b" opacity="0.36" /><rect x="1733.9" y="808.7" width="33.2" height="34.9" fill="#f3c98b" opacity="0.43" /><rect x="1770.1" y="341.5" width="33.2" height="34.9" fill="#f3c98b" opacity="0.47" /><rect x="1770.1" y="380.4" width="33.2" height="34.9" fill="#f3c98b" opacity="0.31" /><rect x="1770.1" y="419.4" width="33.2" height="34.9" fill="#f3c98b" opacity="0.37" /><rect x="1770.1" y="497.2" width="33.2" height="34.9" fill="#f3c98b" opacity="0.34" /><rect x="1770.1" y="536.2" width="33.2" height="34.9" fill="#f3c98b" opacity="0.55" /><rect x="1770.1" y="614.0" width="33.2" height="34.9" fill="#f3c98b" opacity="0.42" /><rect x="1770.1" y="653.0" width="33.2" height="34.9" fill="#f3c98b" opacity="0.55" /><rect x="1770.1" y="730.8" width="33.2" height="34.9" fill="#f3c98b" opacity="0.36" /><rect x="1770.1" y="769.8" width="33.2" height="34.9" fill="#f3c98b" opacity="0.42" /><rect x="1770.1" y="808.7" width="33.2" height="34.9" fill="#f3c98b" opacity="0.43" /><rect x="1806.2" y="224.7" width="33.2" height="34.9" fill="#f3c98b" opacity="0.28" /><rect x="1806.2" y="263.6" width="33.2" height="34.9" fill="#f3c98b" opacity="0.41" /><rect x="1806.2" y="302.6" width="33.2" height="34.9" fill="#f3c98b" opacity="0.47" /><rect x="1806.2" y="341.5" width="33.2" height="34.9" fill="#f3c98b" opacity="0.56" /><rect x="1806.2" y="458.3" width="33.2" height="34.9" fill="#f3c98b" opacity="0.49" /><rect x="1806.2" y="536.2" width="33.2" height="34.9" fill="#f3c98b" opacity="0.37" /><rect x="1806.2" y="575.1" width="33.2" height="34.9" fill="#f3c98b" opacity="0.47" /><rect x="1806.2" y="614.0" width="33.2" height="34.9" fill="#f3c98b" opacity="0.55" /><rect x="1806.2" y="653.0" width="33.2" height="34.9" fill="#f3c98b" opacity="0.37" /><rect x="1806.2" y="691.9" width="33.2" height="34.9" fill="#f3c98b" opacity="0.41" /><rect x="1806.2" y="730.8" width="33.2" height="34.9" fill="#f3c98b" opacity="0.53" /><rect x="1806.2" y="808.7" width="33.2" height="34.9" fill="#f3c98b" opacity="0.36" /><rect x="1842.4" y="224.7" width="33.2" height="34.9" fill="#f3c98b" opacity="0.53" /><rect x="1842.4" y="263.6" width="33.2" height="34.9" fill="#f3c98b" opacity="0.52" /><rect x="1842.4" y="341.5" width="33.2" height="34.9" fill="#f3c98b" opacity="0.42" /><rect x="1842.4" y="380.4" width="33.2" height="34.9" fill="#f3c98b" opacity="0.32" /><rect x="1842.4" y="419.4" width="33.2" height="34.9" fill="#f3c98b" opacity="0.30" /><rect x="1842.4" y="458.3" width="33.2" height="34.9" fill="#f3c98b" opacity="0.27" /><rect x="1842.4" y="497.2" width="33.2" height="34.9" fill="#f3c98b" opacity="0.30" /><rect x="1842.4" y="575.1" width="33.2" height="34.9" fill="#f3c98b" opacity="0.35" /><rect x="1842.4" y="653.0" width="33.2" height="34.9" fill="#f3c98b" opacity="0.34" /><rect x="1842.4" y="730.8" width="33.2" height="34.9" fill="#f3c98b" opacity="0.45" /><rect x="1842.4" y="769.8" width="33.2" height="34.9" fill="#f3c98b" opacity="0.37" /><rect x="1842.4" y="808.7" width="33.2" height="34.9" fill="#f3c98b" opacity="0.47" /><rect x="1878.6" y="263.6" width="33.2" height="34.9" fill="#f3c98b" opacity="0.58" /><rect x="1878.6" y="380.4" width="33.2" height="34.9" fill="#f3c98b" opacity="0.59" /><rect x="1878.6" y="419.4" width="33.2" height="34.9" fill="#f3c98b" opacity="0.25" /><rect x="1878.6" y="497.2" width="33.2" height="34.9" fill="#f3c98b" opacity="0.36" /><rect x="1878.6" y="653.0" width="33.2" height="34.9" fill="#f3c98b" opacity="0.60" /><rect x="1878.6" y="691.9" width="33.2" height="34.9" fill="#f3c98b" opacity="0.47" /><rect x="1878.6" y="769.8" width="33.2" height="34.9" fill="#f3c98b" opacity="0.55" /><rect x="1914.7" y="224.7" width="33.2" height="34.9" fill="#f3c98b" opacity="0.42" /><rect x="1914.7" y="341.5" width="33.2" height="34.9" fill="#f3c98b" opacity="0.50" /><rect x="1914.7" y="380.4" width="33.2" height="34.9" fill="#f3c98b" opacity="0.54" /><rect x="1914.7" y="419.4" width="33.2" height="34.9" fill="#f3c98b" opacity="0.52" /><rect x="1914.7" y="575.1" width="33.2" height="34.9" fill="#f3c98b" opacity="0.53" /><rect x="1914.7" y="614.0" width="33.2" height="34.9" fill="#f3c98b" opacity="0.59" /><rect x="1914.7" y="653.0" width="33.2" height="34.9" fill="#f3c98b" opacity="0.40" /><rect x="1914.7" y="691.9" width="33.2" height="34.9" fill="#f3c98b" opacity="0.29" /><rect x="1914.7" y="730.8" width="33.2" height="34.9" fill="#f3c98b" opacity="0.32" /><rect x="1914.7" y="808.7" width="33.2" height="34.9" fill="#f3c98b" opacity="0.51" /><rect x="1950.9" y="224.7" width="33.2" height="34.9" fill="#f3c98b" opacity="0.56" /><rect x="1950.9" y="263.6" width="33.2" height="34.9" fill="#f3c98b" opacity="0.26" /><rect x="1950.9" y="302.6" width="33.2" height="34.9" fill="#f3c98b" opacity="0.53" /><rect x="1950.9" y="341.5" width="33.2" height="34.9" fill="#f3c98b" opacity="0.27" /><rect x="1950.9" y="419.4" width="33.2" height="34.9" fill="#f3c98b" opacity="0.53" /><rect x="1950.9" y="458.3" width="33.2" height="34.9" fill="#f3c98b" opacity="0.42" /><rect x="1950.9" y="575.1" width="33.2" height="34.9" fill="#f3c98b" opacity="0.32" /><rect x="1950.9" y="691.9" width="33.2" height="34.9" fill="#f3c98b" opacity="0.58" /><rect x="1950.9" y="769.8" width="33.2" height="34.9" fill="#f3c98b" opacity="0.31" /><rect x="1987.1" y="263.6" width="33.2" height="34.9" fill="#f3c98b" opacity="0.59" /><rect x="1987.1" y="302.6" width="33.2" height="34.9" fill="#f3c98b" opacity="0.31" /><rect x="1987.1" y="341.5" width="33.2" height="34.9" fill="#f3c98b" opacity="0.43" /><rect x="1987.1" y="380.4" width="33.2" height="34.9" fill="#f3c98b" opacity="0.48" /><rect x="1987.1" y="419.4" width="33.2" height="34.9" fill="#f3c98b" opacity="0.33" /><rect x="1987.1" y="458.3" width="33.2" height="34.9" fill="#f3c98b" opacity="0.38" /><rect x="1987.1" y="497.2" width="33.2" height="34.9" fill="#f3c98b" opacity="0.32" /><rect x="1987.1" y="536.2" width="33.2" height="34.9" fill="#f3c98b" opacity="0.40" /><rect x="1987.1" y="614.0" width="33.2" height="34.9" fill="#f3c98b" opacity="0.60" /><rect x="1987.1" y="653.0" width="33.2" height="34.9" fill="#f3c98b" opacity="0.46" /><rect x="1987.1" y="691.9" width="33.2" height="34.9" fill="#f3c98b" opacity="0.49" /><rect x="1987.1" y="769.8" width="33.2" height="34.9" fill="#f3c98b" opacity="0.52" /><rect x="1987.1" y="808.7" width="33.2" height="34.9" fill="#f3c98b" opacity="0.59" />
  <line x1="0" y1="841.6" x2="1920" y2="841.6" stroke="#efe6d8" stroke-width="1" opacity="0.35" />
  <rect x="0" y="841.6" width="1920" height="558.4" fill="#161410" opacity="0.9" />
</svg>